<?xml version="1.0" standalone="no"?><!DOCTYPE svg PUBLIC "-//W3C//DTD SVG 1.1//EN" "http://www.w3.org/Graphics/SVG/1.1/DTD/svg11.dtd"><svg class="icon" height="512" viewBox="0 0 1024 1024" version="1.1" xmlns="http://www.w3.org/2000/svg"><path d="M193.536 819.2a17.066667 17.066667 0 0 1-16.213333-22.698667l71.850666-208.384a17.066667 17.066667 0 1 1 32.256 11.093334l-71.850666 208.554666a17.066667 17.066667 0 0 1-16.042667 11.434667z" fill="#808285" /><path d="M293.888 955.733333a17.066667 17.066667 0 0 1-5.802667-1.024L25.941333 860.501333a17.066667 17.066667 0 0 1 11.605334-32.085333c78.848 28.330667 140.970667-35.328 143.701333-37.888a17.066667 17.066667 0 0 1 29.354667 10.24c0 3.925333 10.069333 93.525333 89.088 122.026667a17.066667 17.066667 0 0 1-5.802667 32.938666z m-164.522667-94.378666l77.653334 27.989333a207.701333 207.701333 0 0 1-24.405334-55.637333 200.362667 200.362667 0 0 1-53.248 27.648z" fill="#808285" /><path d="M270.677333 249.173333l-59.733333 160.426667C187.733333 468.48 189.610667 546.133333 256 571.392a126.293333 126.293333 0 0 0 161.621333-68.266667l44.032-102.4z" fill="#9E1F63" /><path d="M311.466667 603.136a138.581333 138.581333 0 0 1-46.933334-8.192 144.213333 144.213333 0 0 1-85.333333-182.613333l117.930667-293.717334 234.496 84.309334L443.733333 506.368a141.653333 141.653333 0 0 1-73.045333 83.114667 137.898667 137.898667 0 0 1-59.221333 13.653333z m4.949333-441.344l-105.813333 262.485333A109.909333 109.909333 0 0 0 276.138667 563.2a103.424 103.424 0 0 0 80.384-4.096 107.52 107.52 0 0 0 55.296-62.634667l78.165333-271.872z" fill="#6B013E" /><path d="M828.074667 819.2a17.066667 17.066667 0 0 1-16.213334-11.434667l-71.68-208.554666a17.066667 17.066667 0 1 1 32.256-11.093334l71.850667 208.384a17.066667 17.066667 0 0 1-16.213333 22.698667z" fill="#808285" /><path d="M727.722667 955.733333a17.066667 17.066667 0 0 1-5.802667-33.109333c80.213333-28.672 89.088-120.490667 89.088-122.026667a17.066667 17.066667 0 0 1 29.354667-10.24c2.56 2.730667 64.853333 66.218667 143.701333 37.888a17.066667 17.066667 0 0 1 11.605333 32.085334L733.866667 954.709333a17.066667 17.066667 0 0 1-6.144 1.024z m111.274666-122.026666a208.384 208.384 0 0 1-24.405333 55.637333l77.653333-27.989333a200.362667 200.362667 0 0 1-53.248-27.648z" fill="#808285" /><path d="M750.933333 249.173333l59.562667 160.426667c22.869333 58.368 21.504 135.509333-44.202667 161.28a126.293333 126.293333 0 0 1-161.621333-68.266667l-44.032-102.4z" fill="#9E1F63" /><path d="M709.973333 603.136a137.898667 137.898667 0 0 1-59.733333-13.653333 141.312 141.312 0 0 1-72.874667-82.261334l-87.381333-304.298666 234.325333-84.309334 118.101334 292.864a144.384 144.384 0 0 1-85.333334 183.466667 138.752 138.752 0 0 1-47.104 8.192zM531.626667 224.085333l78.336 273.066667a107.178667 107.178667 0 0 0 55.637333 61.44 103.424 103.424 0 0 0 80.384 4.096 110.08 110.08 0 0 0 65.194667-139.434667L705.024 161.792z" fill="#6B013E" /><path d="M510.805333 125.269333a17.066667 17.066667 0 0 1-17.066666-17.066666V44.373333a17.066667 17.066667 0 1 1 34.133333 0v63.829334a17.066667 17.066667 0 0 1-17.066667 17.066666zM590.677333 125.269333a17.066667 17.066667 0 0 1-14.165333-26.453333L608.426667 51.2a17.066667 17.066667 0 0 1 28.330666 18.944L604.842667 117.76a17.066667 17.066667 0 0 1-14.165334 7.509333zM430.933333 125.269333a17.066667 17.066667 0 0 1-14.165333-7.68l-31.914667-47.786666A17.066667 17.066667 0 1 1 413.184 51.2l31.914667 47.957333a17.066667 17.066667 0 0 1-14.165334 26.453334z" fill="#808285" /></svg>