<?xml version="1.0" standalone="no"?><!DOCTYPE svg PUBLIC "-//W3C//DTD SVG 1.1//EN" "http://www.w3.org/Graphics/SVG/1.1/DTD/svg11.dtd"><svg class="icon" height="512" viewBox="0 0 1024 1024" version="1.1" xmlns="http://www.w3.org/2000/svg"><path d="M512 865.3l-15-18.5C485.8 833.1 223 507.1 223 353c0-159.4 129.7-289 289-289s289 129.7 289 289c0 154.1-262.9 480.1-274.1 493.9L512 865.3z m0-762.8c-138.1 0-250.5 112.4-250.5 250.5 0 120.8 194.4 378.7 250.5 450.7 56.1-71.9 250.5-329.8 250.5-450.7 0-138.1-112.4-250.5-250.5-250.5z" fill="#231815" /><path d="M512 497.5c-79.7 0-144.5-64.8-144.5-144.5S432.3 208.5 512 208.5 656.5 273.3 656.5 353 591.7 497.5 512 497.5z m0-269.7c-69.1 0-125.2 56.2-125.2 125.2S442.9 478.3 512 478.3s125.2-56.2 125.2-125.2S581.1 227.8 512 227.8zM653.1 760.2v19.6c85.4 16.4 138.3 46.3 138.3 74.2 0 41-114.7 86.7-279.4 86.7S232.6 895 232.6 854c0-27.8 52.9-57.8 138.3-74.2v-19.6C282.1 776.3 213.3 808 213.3 854c0 68.8 153.9 106 298.7 106 144.8 0 298.7-37.1 298.7-106 0-46-68.8-77.7-157.6-93.8z" fill="#231815" /></svg>