<?xml version="1.0" encoding="iso-8859-1"?>
<!-- Generator: Adobe Illustrator 19.0.0, SVG Export Plug-In . SVG Version: 6.00 Build 0)  -->
<svg version="1.1" id="Capa_1" xmlns="http://www.w3.org/2000/svg" xmlns:xlink="http://www.w3.org/1999/xlink" x="0px" y="0px"
	 viewBox="0 0 496 496" style="enable-background:new 0 0 496 496;" xml:space="preserve">
<path style="fill:#5D9CEC;" d="M172,272c0-22.64-10.4-42.88-26.8-55.92l0.08-0.08H220v80h-40v-24H172z"/>
<polygon style="fill:#87BCF4;" points="157.904,296 181.904,296 194.104,216 170.104,216 "/>
<polygon style="fill:#ED5565;" points="100,145.2 76,160 76,128 284,0 492,128 492,160 468,145.2 284,32 "/>
<g>
	<circle style="fill:#5D9CEC;" cx="284" cy="136" r="32"/>
	<rect x="348" y="216" style="fill:#5D9CEC;" width="88" height="80"/>
</g>
<rect x="252" y="256" style="fill:#ED5565;" width="64" height="120"/>
<path style="fill:#E6E9ED;" d="M180,296h40v-80h-74.72l-0.08,0.08c-8.408-6.872-18.32-11.832-29.2-14.32v-8.16
	c-5.2-1.04-10.48-1.6-16-1.6v-46.8L284,32l184,113.2V376H316V256h-64v120h-98.32c11.36-12.72,18.32-29.52,18.32-48v-32H180z
	 M436,296v-80h-88v80H436z M284,168c17.68,0,32-14.32,32-32s-14.32-32-32-32s-32,14.32-32,32S266.32,168,284,168z"/>
<polygon style="fill:#CCD1D9;" points="436,125.512 436,216 436,296 436,376 468,376 468,145.2 "/>
<path style="fill:#ED5565;" d="M175.12,428.88c-5.68-3.12-12.16-4.88-19.12-4.88h-24l-14.32,7.12L116,432l-16-8l-16,8l-1.68-0.88
	L68,424H44c-6.96,0-13.44,1.76-19.12,4.88C12.4,435.68,4,448.88,4,464v24c0,4.4,3.6,8,8,8h5.52H92h16h74.48H188c4.4,0,8-3.6,8-8v-24
	C196,448.88,187.6,435.68,175.12,428.88z"/>
<path style="fill:#DA4453;" d="M175.12,428.88c-5.68-3.12-12.16-4.88-19.12-4.88h-24l-1.272,0.632
	c4.416,0.752,8.592,2.168,12.392,4.248c12.488,6.8,20.88,20,20.88,35.12v24c0,4.4-3.6,8-8,8h26.48H188c4.4,0,8-3.6,8-8v-24
	C196,448.88,187.6,435.68,175.12,428.88z"/>
<path style="fill:#F5F7FA;" d="M117.68,431.12L116,432l-16-8l-16,8l-1.68-0.88L68,424v-31.52c9.6,4.808,20.56,7.52,32,7.52
	s22.4-2.72,32-7.52V424L117.68,431.12z"/>
<path style="fill:#EAC6BB;" d="M68,392.48c-23.6-11.68-39.84-36-40-64.08V328v-32h144v32c0,18.48-6.96,35.28-18.32,48
	c-6.08,6.8-13.44,12.4-21.68,16.48c-9.6,4.808-20.56,7.52-32,7.52S77.6,397.28,68,392.48z"/>
<path style="fill:#D3B1A9;" d="M100,392.48c23.6-11.68,39.84-36,40-64.08V328v-32h32v32v0.4c-0.16,28.08-16.4,52.4-40,64.08
	c-9.6,4.808-20.56,7.52-32,7.52c-5.48,0-10.832-0.656-16-1.832C89.616,396.88,95,394.976,100,392.48z"/>
<g>
	<path style="fill:#965353;" d="M88,344c6.64,0,12,5.36,12,12s-5.36,12-12,12H68.24H68c-13.28,0-24-10.72-24-24v-16
		c0,8.8,7.2,16,16,16H88z"/>
	<path style="fill:#965353;" d="M156,344c0,13.28-10.72,24-24,24h-0.24H112c-6.64,0-12-5.36-12-12s5.36-12,12-12h28
		c8.8,0,16-7.2,16-16V344z"/>
</g>
<path style="fill:#F6BB42;" d="M116,193.6v8.16c10.88,2.488,20.8,7.448,29.2,14.32C161.6,229.12,172,249.36,172,272H28
	c0-34.32,23.92-62.96,56-70.24v-8.16c5.2-1.04,10.56-1.6,16-1.6C105.52,192,110.8,192.56,116,193.6z"/>
<path style="fill:#EDAB37;" d="M145.2,216.08c-8.408-6.872-18.32-11.832-29.2-14.32v-8.16c-5.2-1.04-10.48-1.6-16-1.6
	c-5.44,0-10.8,0.56-16,1.6v8.16c10.88,2.488,20.8,7.448,29.2,14.32C129.6,229.12,140,249.36,140,272h32
	C172,249.36,161.6,229.12,145.2,216.08z"/>
<g>
	<polygon style="fill:#FFCE54;" points="172,296 28,296 20,296 20,272 28,272 172,272 180,272 180,296 	"/>
	<path style="fill:#FFCE54;" d="M116.008,232v-30.24H116v-8.16c-5.2-1.04-10.48-1.6-16-1.6c-5.44,0-10.8,0.56-16,1.6v8.16V232
		H116.008z"/>
</g>
<polygon style="fill:#DA4453;" points="460,140.28 468,145.2 492,160 492,128 460,108.304 "/>
<polygon style="fill:#87BCF4;" points="373.904,296 397.904,296 410.104,216 386.104,216 "/>
<path style="fill:#DA4453;" d="M156.28,461.328l25.936-27.416c-2.184-1.904-4.528-3.632-7.104-5.032
	c-2.296-1.264-4.752-2.232-7.288-3.024l-22.584,23.872l-20.88-21.936l-6.68,3.328L116,432l-16-8l-16,8l-1.68-0.88l-7.032-3.496
	l-20.728,21.6L32.472,425.76c-2.648,0.808-5.2,1.816-7.584,3.128c-2.488,1.352-4.752,3.024-6.88,4.84l25.48,27.056L10.08,495.616
	C10.704,495.776,11.312,496,12,496h5.52h14.328l22.6-23.56L76.64,496H92h6.6l-33.064-35.112l34.248-35.712l34.448,36.184
	L101.488,496H108h15.496l21.792-23.04l21.92,23.04h15.264h5.52c0.384,0,0.712-0.168,1.08-0.216L156.28,461.328z"/>
<g>
	<path style="fill:#D3374E;" d="M164,469.44V488c0,1.312-0.4,2.504-0.968,3.608l4.176,4.392h15.264h5.52
		c0.384,0,0.712-0.168,1.08-0.216L164,469.44z"/>
	<path style="fill:#D3374E;" d="M155.288,439.112c3.544,4.448,6.096,9.672,7.496,15.352l19.44-20.544
		c-0.016-0.008-0.032-0.024-0.04-0.032c-1.056-0.912-2.144-1.784-3.264-2.592c-1.224-0.856-2.48-1.688-3.8-2.408
		c-2.296-1.264-4.752-2.232-7.288-3.024L155.288,439.112z"/>
</g>
<path style="fill:#F5F7FA;" d="M316,136c0-2.784-0.472-5.432-1.136-8H292v-22.864c-2.568-0.664-5.216-1.136-8-1.136
	s-5.432,0.472-8,1.136V128h-22.864c-0.664,2.568-1.136,5.216-1.136,8s0.472,5.432,1.136,8H276v22.864
	c2.568,0.664,5.216,1.136,8,1.136s5.432-0.472,8-1.136V144h22.864C315.528,141.432,316,138.784,316,136z"/>
<g>
</g>
<g>
</g>
<g>
</g>
<g>
</g>
<g>
</g>
<g>
</g>
<g>
</g>
<g>
</g>
<g>
</g>
<g>
</g>
<g>
</g>
<g>
</g>
<g>
</g>
<g>
</g>
<g>
</g>
</svg>
