<?xml version="1.0" encoding="iso-8859-1"?>
<!-- Generator: Adobe Illustrator 19.0.0, SVG Export Plug-In . SVG Version: 6.00 Build 0)  -->
<svg version="1.1" id="Capa_1" xmlns="http://www.w3.org/2000/svg" xmlns:xlink="http://www.w3.org/1999/xlink" x="0px" y="0px"
	 viewBox="0 0 495.92 495.92" style="enable-background:new 0 0 495.92 495.92;" xml:space="preserve">
<g>
	<path style="fill:#FFCE54;" d="M451.96,95.944h-8c-4.424,0-8,3.576-8,8s3.576,8,8,8h8c4.488,0,8,3.512,8,8v96c0,4.424,3.576,8,8,8
		s8-3.576,8-8v-96C475.96,106.712,465.192,95.944,451.96,95.944z"/>
	<polygon style="fill:#FFCE54;" points="451.96,351.92 451.96,367.92 435.96,391.92 419.96,367.92 419.96,351.92 	"/>
</g>
<path style="fill:#656D78;" d="M435.96,79.92c-8.8,0-16,7.128-16,16v80v176h32v-176v-72v-8C451.96,87.048,444.76,79.92,435.96,79.92
	z"/>
<polygon style="fill:#FFCE54;" points="451.96,167.944 419.96,167.944 419.96,175.92 419.96,183.944 451.96,183.944 451.96,175.92 
	"/>
<polygon style="fill:#AAB2BD;" points="43.96,471.92 339.96,472 339.96,495.92 19.96,495.92 19.96,47.92 43.96,47.92 "/>
<polygon style="fill:#CCD1D9;" points="67.96,447.92 363.96,448 363.96,472 339.96,472 43.96,471.92 43.96,47.92 43.96,24 67.96,24 
	"/>
<polygon style="fill:#F5F7FA;" points="387.96,47.92 339.96,47.92 339.96,0 "/>
<path style="fill:#E6E9ED;" d="M387.96,47.92V448h-24l-296-0.08V24V0h272v47.92H387.96z"/>
<g>
	<path style="fill:#656D78;" d="M331.96,215.936h-208c-4.424,0-8-3.576-8-8s3.576-8,8-8h208c4.424,0,8,3.576,8,8
		S336.384,215.936,331.96,215.936z"/>
	<path style="fill:#656D78;" d="M331.96,255.936h-208c-4.424,0-8-3.576-8-8s3.576-8,8-8h208c4.424,0,8,3.576,8,8
		C339.96,252.36,336.384,255.936,331.96,255.936z"/>
	<path style="fill:#656D78;" d="M331.96,295.936h-208c-4.424,0-8-3.576-8-8s3.576-8,8-8h208c4.424,0,8,3.576,8,8
		S336.384,295.936,331.96,295.936z"/>
	<path style="fill:#656D78;" d="M227.96,335.936h-104c-4.424,0-8-3.576-8-8s3.576-8,8-8h104c4.424,0,8,3.576,8,8
		S232.384,335.936,227.96,335.936z"/>
</g>
<path style="fill:#CCD1D9;" d="M331.96,399.936h-56c-4.424,0-8-3.576-8-8s3.576-8,8-8h56c4.424,0,8,3.576,8,8
	S336.384,399.936,331.96,399.936z"/>
<path style="fill:#AC92EC;" d="M323.848,375.4c-0.04-0.552-0.168-1.08-0.328-1.608c-0.136-0.488-0.256-0.952-0.488-1.4
	c-0.208-0.44-0.504-0.808-0.808-1.192c-0.344-0.464-0.688-0.88-1.12-1.256c-0.144-0.12-0.208-0.288-0.36-0.4
	c-0.248-0.184-0.544-0.232-0.808-0.384c-0.488-0.288-0.96-0.536-1.504-0.72c-0.52-0.168-1.032-0.256-1.568-0.32
	c-0.32-0.032-0.592-0.176-0.912-0.176c-0.192,0-0.352,0.096-0.536,0.112c-0.56,0.04-1.08,0.168-1.616,0.328
	c-0.488,0.136-0.944,0.256-1.384,0.48s-0.824,0.512-1.208,0.824c-0.456,0.336-0.872,0.68-1.248,1.112
	c-0.12,0.144-0.288,0.208-0.4,0.36l-9.6,12.808v-8.008c0-4.424-3.576-8-8-8s-8,3.576-8,8v32c0,0.192,0.096,0.352,0.112,0.536
	c0.04,0.56,0.168,1.08,0.328,1.616c0.136,0.488,0.256,0.944,0.488,1.392c0.208,0.432,0.504,0.808,0.808,1.192
	c0.344,0.464,0.688,0.88,1.12,1.256c0.144,0.12,0.208,0.288,0.36,0.4c0.328,0.248,0.704,0.36,1.056,0.552
	c0.312,0.168,0.584,0.352,0.92,0.48c0.912,0.352,1.856,0.568,2.816,0.568h-0.008l0,0c1.192,0,2.304-0.296,3.32-0.768
	c0.28-0.136,0.496-0.352,0.76-0.512c0.744-0.448,1.408-0.96,1.952-1.616c0.112-0.128,0.264-0.168,0.368-0.304l9.6-12.808v8.008
	c0,4.424,3.576,8,8,8s8-3.576,8-8v-32C323.96,375.744,323.864,375.584,323.848,375.4z"/>
<path style="fill:#434A54;" d="M123.96,135.888c-4.424,0-8-3.576-8-8v-64c0-4.424,3.576-8,8-8s8,3.576,8,8v64
	C131.96,132.312,128.384,135.888,123.96,135.888z"/>
<path style="fill:#ED5565;" d="M187.96,73.496c-2.536,0-4.704,1.248-6.168,3.096L155.96,55.92l-25.832,20.672
	c-1.464-1.84-3.624-3.096-6.168-3.096c-4.424,0-8,3.576-8,8v46.392c0,4.424,3.576,8,8,8h64c4.424,0,8-3.576,8-8V81.496
	C195.96,77.08,192.384,73.496,187.96,73.496z"/>
<path style="fill:#656D78;" d="M200.952,81.64l-40-31.952c-0.192-0.152-0.424-0.184-0.624-0.32c-0.464-0.304-0.928-0.536-1.44-0.744
	c-0.48-0.184-0.928-0.352-1.424-0.448c-0.504-0.096-0.992-0.12-1.504-0.12s-1,0.024-1.504,0.12
	c-0.496,0.104-0.952,0.264-1.424,0.456c-0.504,0.192-0.968,0.432-1.432,0.736c-0.2,0.136-0.44,0.168-0.632,0.32l-40,31.952
	c-3.456,2.76-4.016,7.792-1.256,11.24c1.576,1.976,3.904,3.008,6.256,3.008c1.752,0,3.504-0.568,4.984-1.752l35.008-27.968
	l35.008,27.968c1.48,1.176,3.232,1.752,4.984,1.752c2.352,0,4.68-1.032,6.256-3.008C204.968,89.432,204.408,84.4,200.952,81.64z"/>
<path style="fill:#FFCE54;" d="M155.96,103.888c-4.424,0-8,3.576-8,8v24h16v-24C163.96,107.464,160.384,103.888,155.96,103.888z"/>
<g>
</g>
<g>
</g>
<g>
</g>
<g>
</g>
<g>
</g>
<g>
</g>
<g>
</g>
<g>
</g>
<g>
</g>
<g>
</g>
<g>
</g>
<g>
</g>
<g>
</g>
<g>
</g>
<g>
</g>
</svg>
