<?xml version="1.0" standalone="no"?><!DOCTYPE svg PUBLIC "-//W3C//DTD SVG 1.1//EN" "http://www.w3.org/Graphics/SVG/1.1/DTD/svg11.dtd"><svg class="icon" height="512" viewBox="0 0 1024 1024" version="1.1" xmlns="http://www.w3.org/2000/svg"><path d="M489.74336 154.61376L133.05856 511.26784v445.37344h741.9136v-416.8192z" fill="#EAEAEA" /><path d="M275.73248 642.75968h199.75168v313.8816H275.73248z" fill="#434854" /><path d="M532.54656 614.21568h85.61664v85.61152h-85.61664zM646.69184 614.21568h85.61152v85.61152h-85.61152zM646.69184 500.07552h85.61152v85.6064h-85.61152zM532.54656 500.07552h85.61664v85.6064h-85.61664z" fill="#469FCC" /><path d="M532.54656 500.07552h85.61664v28.53888h-85.61664zM646.69184 500.07552h85.61152v28.53888h-85.61152zM532.54656 614.21568h85.61664v28.544h-85.61664zM646.69184 614.21568h85.61152v28.544h-85.61152z" fill="" /><path d="M489.74336 100.5824L133.05856 471.54176v85.59616L489.74336 200.448l385.2288 385.23392v-85.6064z" fill="" /><path d="M950.37952 494.17216L530.08896 73.8816l-20.16768-20.1728a28.52864 28.52864 0 0 0-40.36096 0l-20.1728 20.1728-391.75168 391.7568a28.54912 28.54912 0 0 0 0 40.35584l20.18304 20.16768a28.49792 28.49792 0 0 0 40.35072 0L489.74336 154.624l400.11264 400.0768a28.51328 28.51328 0 0 0 40.35584 0l20.16768-20.1728a28.5184 28.5184 0 0 0 0-40.35584z" fill="#EF4D4D" /><path d="M259.90656 956.64128c9.81504-16.85504 15.82592-36.1728 15.82592-57.06752 0-63.03744-51.10272-114.14528-114.14016-114.14528s-114.14016 51.10784-114.14016 114.14528c0 20.89472 6.016 40.20736 15.82592 57.06752h196.62848zM846.4384 785.42336c-46.14144 0-85.6576 27.51488-103.61344 66.90304-11.776-6.0672-24.90368-9.83552-39.05024-9.83552-47.27296 0-85.61664 38.32832-85.61664 85.61152 0 10.07616 2.06336 19.56352 5.23264 28.53376H944.7424c9.81504-16.85504 15.83616-36.1728 15.83616-57.06752 0.00512-63.03232-51.10272-114.14528-114.14016-114.14528z" fill="#3AAD73" /><path d="M742.82496 852.33152c-11.776-6.0672-24.90368-9.83552-39.05024-9.83552-47.27296 0-85.61664 38.32832-85.61664 85.61152 0 10.07616 2.06336 19.56352 5.23264 28.53376h124.73344c-9.82016-16.85504-15.83104-36.1728-15.83104-57.06752 0.00512-16.89088 3.89632-32.81408 10.53184-47.24224z" fill="" /><path d="M978.3808 894.76096c0 44.0064-91.94496 79.6928-205.34272 79.6928-113.43872 0-205.37344-35.69152-205.37344-79.6928 0-44.05248 91.92448-79.68768 205.37344-79.68768 113.38752-0.00512 205.34272 35.6352 205.34272 79.68768z" fill="#844613" /><path d="M857.44128 822.23104v145.04448a490.40384 490.40384 0 0 0 17.13664-3.39968V825.6512a371.46624 371.46624 0 0 0-17.13664-3.42016zM626.8928 838.58432v112.32768a265.728 265.728 0 0 0 17.08544 5.92384V832.6656c-5.95456 1.8432-11.67872 3.79904-17.08544 5.91872zM596.28544 854.01088v81.5104a150.4512 150.4512 0 0 0 19.26144 10.55744v-102.64064a149.83168 149.83168 0 0 0-19.26144 10.5728zM885.94432 828.31872v132.86912a331.77088 331.77088 0 0 0 18.72384-5.46304v-121.97376a348.70784 348.70784 0 0 0-18.72384-5.43232zM655.37024 829.31712v130.816c6.03136 1.65888 12.23168 3.19488 18.7392 4.55168V824.7808c-6.50752 1.3824-12.7232 2.93888-18.7392 4.53632zM798.40768 815.72864v157.99808a403.48672 403.48672 0 0 0 17.03936-1.06496V816.8448a438.784 438.784 0 0 0-17.03936-1.11616zM744.57088 815.89248v157.72672c5.61152 0.32256 11.29472 0.49152 17.05984 0.62976v-159.0016a473.1392 473.1392 0 0 0-17.05984 0.64512zM826.86976 817.98656v153.55392a555.6224 555.6224 0 0 0 19.18976-2.41664v-148.70016a394.57792 394.57792 0 0 0-19.18976-2.43712zM685.48608 822.6304v144.19968c5.5552 1.04448 11.23328 1.94048 17.05984 2.75968v-149.67808a414.66368 414.66368 0 0 0-17.05984 2.71872zM713.92768 818.3808v152.73984a457.0624 457.0624 0 0 0 19.24096 1.85856v-156.43648c-6.51776 0.49664-12.9024 1.1008-19.24096 1.83808zM977.90976 894.7712c0-4.2752-1.11616-8.47872-2.7904-12.55936v25.088c1.67424-4.13184 2.7904-8.27392 2.7904-12.52864zM944.512 851.26656v86.9632c7.66976-4.55168 14.04416-9.43104 19.22048-14.55104v-57.89696c-5.17632-5.08928-11.55072-9.97376-19.22048-14.5152zM773.03808 815.06816v159.3856c4.72576 0 9.35936-0.13312 13.99296-0.29184v-158.82752a483.84 483.84 0 0 0-13.99296-0.26624zM567.84384 889.73312v9.99424c1.57184 9.72288 7.424 18.9184 17.08032 27.3408v-64.62464c-9.65632 8.42752-15.50848 17.6128-17.08032 27.2896zM916.05504 837.8112v113.91488a217.00096 217.00096 0 0 0 17.06496-7.36256v-99.18976a190.09024 190.09024 0 0 0-17.06496-7.36256z" fill="#CC731A" /><path d="M978.23744 874.35776c0 43.99104-91.9296 79.68768-205.38368 79.68768-113.39264 0-205.33248-35.70176-205.33248-79.68768 0-44.04224 91.93984-79.71328 205.33248-79.71328 113.44896-0.01024 205.38368 35.67616 205.38368 79.71328z" fill="#F1D06C" /><path d="M773.07392 794.63424c-113.40288 0-205.35296 35.6864-205.35296 79.71328 0 27.66848 33.6128 45.51168 55.43936 54.43072 0 0 201.49248 11.76576 155.72992-50.23744-45.7216-61.99808 159.56992-51.45088 159.56992-51.45088-37.40672-19.67104-97.54624-32.45568-165.38624-32.45568z" fill="#DBAD3A" /><path d="M985.472 835.00544c0 44.032-91.97056 79.68768-205.37856 79.68768s-205.37344-35.6608-205.37344-79.68768 91.96544-79.70304 205.37344-79.70304 205.37856 35.67104 205.37856 79.70304z" fill="#844613" /><path d="M864.52224 762.48064v145.03424a467.85024 467.85024 0 0 0 17.09056-3.37408v-138.24a440.28928 440.28928 0 0 0-17.09056-3.42016zM633.97888 778.8544v112.32768c5.38624 2.08384 11.1104 4.0704 17.0496 5.92896v-124.22144c-5.9392 1.90464-11.65824 3.82464-17.0496 5.9648zM603.37664 794.24512v81.54112a149.248 149.248 0 0 0 19.2512 10.52672v-102.60992a148.3008 148.3008 0 0 0-19.2512 10.54208zM893.02016 768.55296v132.85376a328.0128 328.0128 0 0 0 18.72896-5.43232v-121.95328a370.60096 370.60096 0 0 0-18.72896-5.46816zM662.44096 769.60256v130.80576c6.04672 1.64864 12.27264 3.15904 18.73408 4.56192v-139.89888a320.8448 320.8448 0 0 0-18.73408 4.5312zM805.45792 756.00384v157.98272c5.76512-0.27648 11.45856-0.60928 17.07008-1.06496v-155.86304c-5.6064-0.4352-11.29472-0.7424-17.07008-1.05472zM751.64672 756.10624v157.78816c5.632 0.29184 11.2896 0.50688 17.08544 0.57856V755.5072c-5.8112 0.11264-11.45856 0.31744-17.08544 0.59904zM833.94048 758.21056v153.58976a466.3296 466.3296 0 0 0 19.20512-2.44736v-148.70016a457.728 457.728 0 0 0-19.20512-2.44224zM692.57728 762.86464v144.24576c5.58592 1.024 11.24864 1.93024 17.07008 2.75456v-149.67808a424.2944 424.2944 0 0 0-17.07008 2.67776zM721.02912 758.64064V911.36c6.28736 0.73216 12.68736 1.34656 19.18464 1.84832v-156.4416c-6.49728 0.52224-12.89728 1.13664-19.18464 1.87392zM984.95488 835.00544c0-4.25984-1.08032-8.44288-2.78528-12.5184v25.05728c1.70496-4.13184 2.78528-8.25344 2.78528-12.53888zM951.6032 791.51104v86.96832c7.63904-4.53632 14.04928-9.41568 19.2-14.56128v-57.87136c-5.15072-5.10976-11.55584-9.96864-19.2-14.53568zM780.1088 755.328v159.35488c4.7104 0 9.35424-0.13824 14.00832-0.26112v-158.85824c-4.65408-0.10752-9.29792-0.23552-14.00832-0.23552zM574.8992 830.00832v9.98912c1.57184 9.68704 7.43424 18.90304 17.09056 27.32032v-64.62464c-9.65632 8.44288-15.51872 17.64864-17.09056 27.3152zM923.1616 778.0608v113.91488a222.42304 222.42304 0 0 0 17.05472-7.36256v-99.18464a201.28768 201.28768 0 0 0-17.05472-7.36768z" fill="#CC731A" /><path d="M985.32352 814.60736c0 43.99104-91.9552 79.68256-205.40928 79.68256-113.38752 0-205.3376-35.69152-205.3376-79.68256 0-44.03712 91.95008-79.69792 205.3376-79.69792 113.45408-0.00512 205.40928 35.67104 205.40928 79.69792z" fill="#F1D06C" /><path d="M780.13952 734.90432c-113.39776 0-205.33248 35.67616-205.33248 79.69792 0 27.64288 33.55136 45.52704 55.36256 54.4256 0 0 201.50272 11.78112 155.78624-50.22208-45.76256-62.0288 159.54944-51.46624 159.54944-51.46624-37.34016-19.66592-97.51552-32.4352-165.36576-32.4352z" fill="#DBAD3A" /><path d="M992.43008 766.99648c0 44.032-91.91936 79.70816-205.34784 79.70816-113.40288 0-205.33248-35.69152-205.33248-79.70816 0-43.98592 91.9296-79.67232 205.33248-79.67232 113.41312 0 205.34784 35.67104 205.34784 79.67232z" fill="#844613" /><path d="M871.52128 694.49728v145.02912a384.1024 384.1024 0 0 0 17.1008-3.39968v-138.20928a435.18976 435.18976 0 0 0-17.1008-3.42016zM640.96256 710.84544v112.34816c5.4016 2.09408 11.136 4.0448 17.07008 5.94432v-124.22656c-5.9392 1.8688-11.66336 3.82976-17.07008 5.93408zM610.36032 726.272v81.53088c5.71904 3.6864 12.06784 7.2704 19.21536 10.5472v-102.59968a143.232 143.232 0 0 0-19.21536 10.5216zM899.99872 700.56448v132.86912a314.8032 314.8032 0 0 0 18.72896-5.43744v-121.9584a321.6896 321.6896 0 0 0-18.72896-5.47328zM669.45536 701.62944v130.76992c6.01088 1.67424 12.24704 3.18976 18.74944 4.56704v-139.89888c-6.5024 1.38752-12.73856 2.9184-18.74944 4.56192zM812.47744 688.02048v157.99808a478.75584 478.75584 0 0 0 17.09056-1.08032v-155.84768a518.69184 518.69184 0 0 0-17.09056-1.07008zM758.61504 688.13312v157.75232c5.63712 0.30208 11.33568 0.50688 17.09568 0.62464v-158.98112a710.0416 710.0416 0 0 0-17.09568 0.60416zM840.91392 690.22208v153.60512a448.01024 448.01024 0 0 0 19.24608-2.4576v-148.68992a456.27904 456.27904 0 0 0-19.24608-2.4576zM699.55072 694.90176v144.22016a432.4864 432.4864 0 0 0 17.08544 2.73408v-149.68832c-5.8368 0.81408-11.5456 1.7408-17.08544 2.73408zM728.02816 690.64704v152.73984c6.25664 0.7424 12.66176 1.34656 19.2256 1.8176v-156.3904c-6.56384 0.4864-12.9536 1.11616-19.2256 1.83296zM991.96928 767.03232c0-4.28544-1.11616-8.44288-2.78528-12.55424v25.06752c1.66912-4.08576 2.78528-8.25344 2.78528-12.51328zM958.57152 723.52256v86.95808c7.63904-4.54144 14.0544-9.42592 19.20512-14.52544v-57.8816c-5.12512-5.11488-11.56608-9.97888-19.20512-14.55104zM787.08224 687.33952v159.38048c4.73088 0 9.32864-0.14848 14.0032-0.29184v-158.8224a363.008 363.008 0 0 0-14.0032-0.26624zM581.87776 762.03008v9.99424c1.60256 9.66656 7.45472 18.87232 17.14176 27.32032v-64.64c-9.68704 8.44288-15.5392 17.61792-17.14176 27.32544zM930.10944 710.03648v113.92512a199.93088 199.93088 0 0 0 17.07008-7.35744V717.4144a211.968 211.968 0 0 0-17.07008-7.37792z" fill="#CC731A" /><path d="M992.3072 746.58816c0 44.04736-91.93984 79.72352-205.3888 79.72352-113.408 0-205.34272-35.69152-205.34272-79.72352 0-43.97056 91.93472-79.69792 205.34272-79.69792 113.44896 0 205.3888 35.71712 205.3888 79.69792z" fill="#F1D06C" /><path d="M787.13856 666.89024c-113.41312 0-205.34272 35.73248-205.34272 79.71328 0 27.66848 33.60256 45.52704 55.39328 54.4256 0 0 201.50784 11.8016 155.78624-50.22208-45.74208-61.99296 159.5648-51.44576 159.5648-51.44576-37.4016-19.69152-97.56672-32.47104-165.4016-32.47104z" fill="#DBAD3A" /><path d="M525.37856 717.02528a205.3376 79.69792 0 1 0 410.6752 0 205.3376 79.69792 0 1 0-410.6752 0Z" fill="#844613" /><path d="M815.15008 644.52608v145.03936a432.75264 432.75264 0 0 0 17.09056-3.42016v-138.20416a432.8448 432.8448 0 0 0-17.09056-3.41504zM584.61184 660.85888v112.37376a277.0944 277.0944 0 0 0 17.08544 5.92384v-124.22656c-5.9904 1.85856-11.7248 3.84512-17.08544 5.92896zM553.97888 676.29568v81.51552a156.09856 156.09856 0 0 0 19.22048 10.55232v-102.65088a152.71424 152.71424 0 0 0-19.22048 10.58304zM843.62752 650.5984v132.86912a326.57408 326.57408 0 0 0 18.7392-5.44256V656.0768a309.5296 309.5296 0 0 0-18.7392-5.4784zM613.05344 651.648v130.7904c6.04672 1.62304 12.24704 3.15392 18.7648 4.57728v-139.94496a372.14208 372.14208 0 0 0-18.7648 4.57728zM756.11136 638.0544v157.99808c5.77536-0.28672 11.45856-0.63488 17.07008-1.05472v-155.8784a418.28352 418.28352 0 0 0-17.07008-1.06496zM702.2336 638.14656v157.76256c5.64224 0.32256 11.32544 0.50176 17.07008 0.62464v-159.00672c-5.74464 0.14848-11.4176 0.34304-17.07008 0.61952zM784.54784 640.24576v153.59488a488.72448 488.72448 0 0 0 19.21536-2.44736v-148.736a565.2992 565.2992 0 0 0-19.21536-2.41152zM643.2 644.9152v144.24064c5.51936 1.01376 11.23328 1.9456 17.0496 2.74432v-149.7088a434.176 434.176 0 0 0-17.0496 2.72384zM671.63136 640.6656v152.7552c6.30272 0.72192 12.7232 1.34144 19.24096 1.82272v-156.40576c-6.53824 0.50688-12.93824 1.11616-19.24096 1.82784zM935.59296 717.03552c0-4.2752-1.09056-8.40704-2.77504-12.53888v25.07776c1.6896-4.11136 2.77504-8.25856 2.77504-12.53888zM902.2208 673.55136v86.99392c7.63904-4.57728 14.06464-9.46176 19.20512-14.58176v-57.87648c-5.14048-5.10464-11.56608-9.95328-19.20512-14.53568zM730.72128 637.3376v159.3856c4.72576 0 9.34912-0.128 13.9776-0.24576v-158.8736c-4.62848-0.11776-9.25184-0.26624-13.9776-0.26624zM525.51168 712.02304v10.0096c1.57696 9.68192 7.43424 18.86208 17.12128 27.29472v-64.59392c-9.6768 8.41728-15.54944 17.64864-17.12128 27.2896zM873.73824 660.096v113.90976a217.8816 217.8816 0 0 0 17.10592-7.34208v-99.2256a214.6304 214.6304 0 0 0-17.10592-7.34208z" fill="#CC731A" /><path d="M935.90528 696.63232c0 44.02688-91.91424 79.70304-205.35296 79.70304-113.40288 0-205.37344-35.69152-205.37344-79.70304 0-44.00128 91.97056-79.70304 205.37344-79.70304 113.43872-0.01024 205.35296 35.70176 205.35296 79.70304z" fill="#F1D06C" /><path d="M730.7776 616.91904c-113.42848 0-205.34784 35.712-205.34784 79.70816 0 27.66336 33.5872 45.54752 55.38304 54.44096 0 0 201.51296 11.78112 155.79136-50.2016-45.7472-62.0288 159.53408-51.47648 159.53408-51.47648-37.36576-19.70688-97.52064-32.47104-165.36064-32.47104z" fill="#DBAD3A" /><path d="M607.31904 724.29568l34.62656-10.96192c-16.9984-7.21408-27.70432-15.6672-29.24032-21.63712l26.81344-3.2c2.79552 5.61664 11.79136 13.15328 28.89728 19.73248 23.28576 8.94976 52.72064 10.77248 69.44768 4.6848 15.37536-5.632 10.81344-13.41952-5.84704-23.96672-20.85888-12.82048-27.0336-21.51424-6.61504-27.17696 18.33984-5.08928 48.13312-4.61824 78.37184 1.3056l19.48672-6.23104 19.87072 4.67968-18.64192 6.33344c19.45088 5.10976 30.71488 9.93792 38.27712 13.99808l-22.72256 2.8416c-5.0432-2.96448-14.60224-8.48896-35.90656-14.0288-24.0896-6.28224-42.63936-5.53472-51.73248-2.80064-11.6992 3.5072-6.72256 8.61696 12.19072 19.74784 25.74336 14.76096 32.58368 26.12224 8.41728 35.89632-23.54176 9.472-68.21888 10.41408-109.66016-2.37056l-36.22912 12.21632-19.80416-9.0624z" fill="#CC731A" /><path d="M985.35424 657.28c0 44.02176-91.91424 79.70816-205.30688 79.70816-113.42336 0-205.40416-35.70176-205.40416-79.70816 0-44.00128 91.9808-79.70304 205.40416-79.70304 113.39264 0.00512 205.30688 35.70176 205.30688 79.70304z" fill="#844613" /><path d="M864.48128 584.79616v145.01888a448.85504 448.85504 0 0 0 17.05984-3.39456v-138.21952a450.69312 450.69312 0 0 0-17.05984-3.4048zM633.89184 601.11872v112.37376c5.38624 2.07872 11.136 4.06528 17.09056 5.92896v-124.2112c-5.95968 1.8432-11.70944 3.81952-17.09056 5.90848zM603.30496 616.54016v81.536a154.68544 154.68544 0 0 0 19.22048 10.55744v-102.61504a144.6656 144.6656 0 0 0-19.22048 10.5216zM892.928 590.83776v132.89984a329.9072 329.9072 0 0 0 18.72896-5.47328v-121.9328a318.02368 318.02368 0 0 0-18.72896-5.49376zM662.34368 591.88736v130.8416c6.05696 1.61792 12.28288 3.1488 18.75968 4.53632v-139.904a355.11808 355.11808 0 0 0-18.75968 4.52608zM805.39648 578.30912v157.99808a589.4144 589.4144 0 0 0 17.08544-1.06496v-155.87328a452.608 452.608 0 0 0-17.08544-1.05984zM751.54944 578.44736v157.71648a489.728 489.728 0 0 0 17.08032 0.64512v-158.97088a477.91104 477.91104 0 0 0-17.08032 0.60928zM833.84832 580.5056v153.60512c6.56896-0.7424 12.94848-1.51552 19.23584-2.44736v-148.7104a481.4848 481.4848 0 0 0-19.23584-2.44736zM692.50048 585.18016v144.20992c5.57568 1.03424 11.24352 1.95584 17.07008 2.76992v-149.69344a438.58944 438.58944 0 0 0-17.07008 2.7136zM720.96256 580.95616v152.7296c6.28736 0.7168 12.67712 1.33632 19.24096 1.80736v-156.40064a444.12416 444.12416 0 0 0-19.24096 1.86368zM984.92928 657.28c0-4.2496-1.152-8.40192-2.79552-12.50304v25.05216c1.64864-4.096 2.79552-8.24832 2.79552-12.54912zM951.51616 613.81632v86.9632c7.64416-4.54656 14.05952-9.41056 19.21024-14.55104v-57.86624c-5.13024-5.11488-11.5456-10.0096-19.21024-14.54592zM780.05248 577.60256v159.40608c4.69504 0 9.31328-0.1536 13.952-0.2816v-158.84288c-4.63872-0.13824-9.25696-0.2816-13.952-0.2816zM574.8736 652.27776v9.99936c1.5104 9.69728 7.35744 18.8928 17.02912 27.32032v-64.61952c-9.6512 8.46848-15.51872 17.64864-17.02912 27.29984zM923.05408 600.3456v113.90976a188.14464 188.14464 0 0 0 17.09056-7.36768v-99.17952a210.72384 210.72384 0 0 0-17.09056-7.36256z" fill="#CC731A" /><path d="M574.48448 636.90752a205.37856 79.6928 0 1 0 410.75712 0 205.37856 79.6928 0 1 0-410.75712 0Z" fill="#F1D06C" /><path d="M780.1088 557.21472c-113.41312 0-205.37856 35.69664-205.37856 79.69792 0 27.64288 33.60256 45.49632 55.40864 54.41024 0 0 201.472 11.776 155.75552-50.2016-45.71136-62.0288 159.5648-51.48672 159.5648-51.48672-37.40672-19.66592-97.54112-32.41984-165.3504-32.41984z" fill="#DBAD3A" /><path d="M656.65536 664.5504l34.59584-10.96704c-16.96256-7.22944-27.71456-15.65696-29.22496-21.65248l26.77248-3.15904c2.85184 5.58592 11.79136 13.13792 28.93312 19.71712 23.24992 8.92928 52.6848 10.77248 69.4528 4.66432 15.38048-5.61152 10.77248-13.38368-5.89824-23.92064-20.85888-12.8512-26.98752-21.5296-6.56384-27.20256 18.3296-5.12512 48.11776-4.61312 78.3616 1.29024l19.456-6.21056 19.92192 4.66432-18.69312 6.33856c19.456 5.09952 30.72 9.92768 38.31808 13.98784l-22.74816 2.87232c-5.05344-2.9952-14.57664-8.4992-35.89632-14.0288-24.1152-6.28736-42.64448-5.55008-51.77856-2.816-11.67872 3.51232-6.69184 8.6272 12.17024 19.75296 25.8304 14.75072 32.59904 26.1376 8.43776 35.90656-23.53152 9.48224-68.21376 10.39872-109.65504-2.37056l-36.21888 12.23168-19.74272-9.09824z" fill="#CC731A" /></svg>