<?xml version="1.0" standalone="no"?><!DOCTYPE svg PUBLIC "-//W3C//DTD SVG 1.1//EN" "http://www.w3.org/Graphics/SVG/1.1/DTD/svg11.dtd"><svg class="icon" height="512" viewBox="0 0 1024 1024" version="1.1" xmlns="http://www.w3.org/2000/svg"><path d="M895.99488 160.12288H128.00512c-42.4448 0-76.80512 34.304-76.80512 76.67712v575.01184c0 42.35776 34.36032 76.67712 76.80512 76.67712h767.98976c42.42944 0 76.80512-34.31424 76.80512-76.67712V236.8c0-42.37312-34.37568-76.67712-76.80512-76.67712z" fill="" /><path d="M895.99488 130.39616H128.00512c-42.4448 0-76.80512 34.304-76.80512 76.67712V782.08c0 42.35776 34.36032 76.67712 76.80512 76.67712h767.98976c42.42944 0 76.80512-34.31424 76.80512-76.67712V207.06816c0-42.37312-34.37568-76.672-76.80512-76.672z" fill="#528BBB" /><path d="M51.2 219.58144h921.6v148.64384H51.2z" fill="#222222" /><path d="M846.92992 442.55232H155.25376v89.18016h713.4976V442.55232z" fill="#FFFFFF" /><path d="M370.78528 620.92288c-27.67872 0-52.096 13.79328-66.88768 34.84672-14.79168-21.04832-39.21408-34.84672-66.88768-34.84672-45.14816 0-81.75616 36.608-81.75616 81.75616s36.608 81.75616 81.75616 81.75616c27.67872 0 52.096-13.79328 66.88768-34.84672 14.79168 21.04832 39.21408 34.84672 66.88768 34.84672 45.14304 0 81.75616-36.608 81.75616-81.75616s-36.608-81.75616-81.75616-81.75616z" fill="#457DAD" /></svg>