<?xml version="1.0" encoding="iso-8859-1"?>
<!-- Generator: Adobe Illustrator 19.0.0, SVG Export Plug-In . SVG Version: 6.00 Build 0)  -->
<svg version="1.1" id="Capa_1" xmlns="http://www.w3.org/2000/svg" xmlns:xlink="http://www.w3.org/1999/xlink" x="0px" y="0px"
	 viewBox="0 0 496 496" style="enable-background:new 0 0 496 496;" xml:space="preserve">
<polygon style="fill:#965353;" points="144,388 144,444 104,444 104,348 144,348 "/>
<polygon style="fill:#FFD2A6;" points="136,220 0,220 0,348 104,348 144,348 240,348 240,220 "/>
<polygon style="fill:#ED5565;" points="472,174 304,76 136,174 112,188 112,156 304,44 496,156 496,188 "/>
<rect x="360" y="228" style="fill:#F5F7FA;" width="80" height="24"/>
<rect x="360" y="252" style="fill:#5D9CEC;" width="80" height="56"/>
<rect x="280" y="284" style="fill:#ED5565;" width="48" height="104"/>
<circle style="fill:#5D9CEC;" cx="304" cy="164" r="32"/>
<path style="fill:#E6E9ED;" d="M472,174v214H328V284h-48v104H144v-40h96V220H136v-46l168-98L472,174z M440,308v-56v-24h-80v24v56
	H440z M304,196c17.68,0,32-14.32,32-32s-14.32-32-32-32s-32,14.32-32,32S286.32,196,304,196z"/>
<polygon style="fill:#CCD1D9;" points="440,155.336 440,228 440,252 440,308 440,388 472,388 472,174 "/>
<polygon style="fill:#DA4453;" points="464,169.336 472,174 496,188 496,156 464,137.336 "/>
<polygon style="fill:#87BCF4;" points="402.832,308 378.832,308 397.168,252 421.168,252 "/>
<path style="fill:#F5F7FA;" d="M336,164c0-2.784-0.472-5.432-1.136-8H312v-22.864c-2.568-0.664-5.216-1.136-8-1.136
	s-5.432,0.472-8,1.136V156h-22.864c-0.664,2.568-1.136,5.216-1.136,8s0.472,5.432,1.136,8H296v22.864
	c2.568,0.664,5.216,1.136,8,1.136s5.432-0.472,8-1.136V172h22.864C335.528,169.432,336,166.784,336,164z"/>
<path style="fill:#A0D468;" d="M152,452H96c-4.424,0-8-3.576-8-8s3.576-8,8-8h56c4.424,0,8,3.576,8,8S156.424,452,152,452z"/>
<g>
	<path style="fill:#EAB081;" d="M124.04,296.896c-0.008-0.008-0.008-0.016-0.008-0.016L107.4,256.96c0,0,0-0.008-0.008-0.016
		l-0.008-0.024c-0.056-0.128-0.168-0.2-0.216-0.32c-0.392-0.824-0.864-1.6-1.52-2.256c-0.568-0.568-1.264-0.96-1.968-1.328
		c-0.216-0.12-0.368-0.304-0.592-0.4c-0.008,0-0.016,0-0.024-0.008c-0.96-0.4-2-0.6-3.064-0.6c-1.048,0-2.08,0.208-3.04,0.6
		c-0.008,0.008-0.016,0-0.032,0.008c-0.368,0.152-0.616,0.44-0.944,0.64c-0.56,0.328-1.144,0.616-1.608,1.088
		c-0.664,0.656-1.16,1.448-1.552,2.28c-0.048,0.12-0.152,0.184-0.192,0.296l-0.008,0.024c-0.008,0.008-0.008,0.016-0.008,0.016
		l-16.632,39.912l-0.008,0.016l-3.344,8.032c-1.704,4.08,0.224,8.768,4.304,10.464C77.928,315.808,78.968,316,80,316
		c3.136,0,6.104-1.848,7.384-4.92l1.28-3.08h22.672l1.28,3.08c1.28,3.072,4.248,4.92,7.384,4.92c1.032,0,2.072-0.192,3.08-0.616
		c4.08-1.696,6.008-6.384,4.304-10.464L124.04,296.896z M95.328,292L100,280.8l4.672,11.2H95.328z"/>
	<path style="fill:#EAB081;" d="M160,300h-8v-40c0-4.424-3.576-8-8-8s-8,3.576-8,8v48c0,4.424,3.576,8,8,8h16c4.424,0,8-3.576,8-8
		S164.424,300,160,300z"/>
	<path style="fill:#EAB081;" d="M208,300h-16v-8h8c4.424,0,8-3.576,8-8s-3.576-8-8-8h-8v-8h16c4.424,0,8-3.576,8-8s-3.576-8-8-8h-24
		c-4.424,0-8,3.576-8,8v48c0,4.424,3.576,8,8,8h24c4.424,0,8-3.576,8-8S212.424,300,208,300z"/>
	<path style="fill:#EAB081;" d="M47.576,276.84c-2.464-1.232-7.064-3.528-7.576-4.768V272c0-2.2,1.8-4,4-4
		c1.696,0,3.208,1.072,3.776,2.664c1.472,4.176,6.056,6.376,10.192,4.896c4.168-1.464,6.368-6.032,4.896-10.192
		C60.064,257.368,52.48,252,44,252c-11.032,0-20,8.968-20,20c0,10.944,9.88,15.88,16.424,19.16c2.464,1.232,7.064,3.528,7.576,4.84
		c0,2.2-1.8,4-4,4c-1.696,0-3.208-1.072-3.776-2.664c-1.464-4.168-6.04-6.384-10.192-4.896c-4.168,1.464-6.368,6.032-4.896,10.192
		C27.944,310.632,35.528,316,44,316c11.032,0,20-8.968,20-20C64,285.056,54.12,280.12,47.576,276.84z"/>
</g>
<g>
</g>
<g>
</g>
<g>
</g>
<g>
</g>
<g>
</g>
<g>
</g>
<g>
</g>
<g>
</g>
<g>
</g>
<g>
</g>
<g>
</g>
<g>
</g>
<g>
</g>
<g>
</g>
<g>
</g>
</svg>
