<?xml version="1.0" standalone="no"?><!DOCTYPE svg PUBLIC "-//W3C//DTD SVG 1.1//EN" "http://www.w3.org/Graphics/SVG/1.1/DTD/svg11.dtd"><svg class="icon" height="512" viewBox="0 0 1024 1024" version="1.1" xmlns="http://www.w3.org/2000/svg"><path d="M850.0224 600.1664c-34.9952 41.6512-156.5184 147.4816-156.5184 147.4816l-234.3168-20.6336c-4.6592 0.9472-6.2976-31.36-10.8544-30.5664l4.096 44.6464-16.4352 49.3056 171.8016 40.4736 202.0352-33.4336 155.7248-187.776c-33.8944-65.28-103.1936-24.1664-115.5328-9.4976z" fill="#D89961" /><path d="M728.6272 562.8928c-27.52 46.8992-129.6384 171.5968-129.6384 171.5968l-234.4704 18.8672c-4.4544 1.7152-11.4688-29.8752-15.7952-28.3136l11.4944 43.3408-7.936 51.3536 176.1536 11.1616 193.5872-66.7648 122.112-211.1744c-44.3648-58.7264-105.8048-6.6048-115.5072 9.9328z" fill="#D89961" /><path d="M638.6688 516.4288c-31.616-9.5232-63.8464 19.9168-70.2208 30.7712-23.9616 40.832-112.7936 174.2848-112.7936 174.2848l-204.0576 16.4096c-3.8656 1.5104-9.9584-26.0096-13.7472-24.6272l10.0096 37.7088-6.912 44.6976 153.3184 9.728 191.8464-38.784 73.5744-211.9424c0-0.0256-2.0736-32.5376-21.0176-38.2464z" fill="#D89961" /><path d="M217.344 878.0288l-109.3376-255.5136 12.032 249.856s38.7328-1.3824 97.3056 5.6576z" fill="#EAAD6C" /><path d="M950.8096 697.8304l30.2592 21.1712c17.5104-23.8592 32.5888-43.4432 42.9056-53.76-40.1408-16.128-73.1648 32.5888-73.1648 32.5888z" fill="#F9E9DC" /><path d="M112.8704 633.8816l-4.2496-95.5392a25.6 25.6 0 0 0-26.6752-24.4224l-57.472 2.56a25.6 25.6 0 0 0-24.4224 26.7008l8.832 198.1184L98.816 951.552l2.6112-0.1024a25.5488 25.5488 0 0 0 24.3968-26.6752l-12.9536-290.8928z" fill="#F8FCFF" /><path d="M8.8576 741.2992l8.3712 188.288a25.5744 25.5744 0 0 0 26.7008 24.3968l54.8864-2.432-89.9584-210.2528z" fill="#EFF2F4" /><path d="M55.6544 746.6496m-34.8672 0a34.8672 34.8672 0 1 0 69.7344 0 34.8672 34.8672 0 1 0-69.7344 0Z" fill="#A0A1A2" /><path d="M778.4448 645.7088s-13.6448 42.4448 4.8384 84.5056c30.8224 3.8144 67.328-2.1504 67.328-39.7312 0.0256-41.7024-61.1584-45.2864-72.1664-44.7744z" fill="#F9E9DC" /><path d="M335.0528 149.3504h104.2944v135.1936h-104.2944z" fill="#D74240" /><path d="M304.128 135.8592h145.8176v61.3376H304.128z" fill="#C63232" /><path d="M430.0032 289.7152a2164.8384 2164.8384 0 0 0 41.984-38.6304c13.6192-12.8768 25.8816-24.5248 36.8128-34.944l28.2112-26.0096c7.424-6.9376 11.904-11.1616 13.3632-12.6464 13.8752-12.8768 29.4656-18.944 46.7968-18.2272a68.224 68.224 0 0 1 44.5952 18.2272A2528.8448 2528.8448 0 0 0 684.8768 217.6c11.392 10.4192 24.0384 21.9136 37.888 34.5344 13.8752 12.6464 27.7504 25.3952 41.6256 38.272 33.2032 30.208 70.0928 63.8976 110.72 101.0688v147.9168c0 11.904-4.1984 21.0688-12.6208 27.4944-0.5376 0.4096-1.152 0.6656-1.7152 1.0496l-166.7584-166.7584-31.744 43.9808-61.4144-55.1936-76.1856 67.1232 20.992 27.8784-46.8736 72.3712 19.2 19.2h-135.168l-64.3584-64.3584v-119.168l111.5392-103.296z" fill="#E1E8ED" /><path d="M545.7152 484.992l-20.992-27.8784 76.1856-67.1232 61.4144 55.1936 31.744-43.9808 166.7584 166.7584c-8.2432 5.6832-19.0208 8.6016-32.4864 8.6016H518.0672l-19.2-19.2 46.848-72.3712z" fill="#E1E8ED" /><path d="M239.7696 374.4768l18.5856-18.5856c9.4208-9.3952 21.0688-20.6848 34.9184-33.792a3112.192 3112.192 0 0 0 45.696-44.2112c16.6144-16.3584 33.5872-32.8192 50.9184-49.4336 17.3312-16.5888 34.432-33.0752 51.2768-49.4336 16.8448-16.3584 32.0768-31.0784 45.696-44.2112 13.6448-13.1328 25.1392-24.2944 34.5344-33.4336 9.4208-9.1648 15.616-14.976 18.5856-17.4592 15.36-14.848 33.9456-22.1696 55.7568-21.9136 21.8112 0.2304 42.112 9.5488 60.928 27.8528 2.4832 2.4832 11.2896 10.7776 26.368 24.9088 15.1296 14.1056 33.2032 31.0784 54.272 50.8928a15282.432 15282.432 0 0 0 68.3776 63.9232l68.736 63.8976c21.2992 19.8144 39.6544 36.9152 54.9888 51.2768 15.36 14.3616 24.5248 23.04 27.4944 26.0096 7.936 7.424 12.1344 17.4592 12.6464 30.1056s-4.1984 23.424-14.1056 32.3328c-8.9088 7.936-19.5584 11.648-31.9488 11.1616-12.3904-0.512-22.2976-3.7376-29.7472-9.6512a696.1664 696.1664 0 0 1-21.9136-19.6864 4962.048 4962.048 0 0 1-43.4688-40.4992 8341.3248 8341.3248 0 0 0-55.0144-51.2768 7631.6672 7631.6672 0 0 1-56.4736-52.7616 6511.6416 6511.6416 0 0 0-75.0592-69.8368c-14.848-13.3632-29.9776-20.3264-45.3376-20.7872-15.36-0.512-30.976 6.4512-46.8224 20.7872-3.456 2.9696-11.648 10.6496-24.5248 23.04-12.8768 12.3904-28.2368 26.9824-46.08 43.8528-17.8432 16.8704-36.7872 34.816-56.8576 53.888-20.0704 19.072-38.8608 36.9408-56.4736 53.5296l-45.312 42.752c-12.6208 11.904-20.1984 18.816-22.6816 20.7872-7.424 6.4512-17.3312 9.9072-29.7216 10.4192a44.544 44.544 0 0 1-32.6912-11.904 36.8384 36.8384 0 0 1-11.8784-29.7472c0.4864-11.9552 5.9392-22.8864 16.3328-32.7936z" fill="#D66648" /><path d="M430.0032 378.9568a2164.8384 2164.8384 0 0 0 41.984-38.6304c13.6192-12.8768 25.8816-24.5248 36.8128-34.944l28.2112-26.0096c7.424-6.912 11.904-11.1616 13.3632-12.6464 13.8752-12.8768 29.4656-18.944 46.7968-18.2016a68.3264 68.3264 0 0 1 44.5952 18.2016 2528.8448 2528.8448 0 0 0 43.1104 40.1152c11.392 10.4192 24.0384 21.9136 37.888 34.5344 13.8752 12.6464 27.7504 25.3952 41.6256 38.272 33.2032 30.208 70.0928 63.8976 110.72 101.0688v101.5552l-181.0688-181.0688-31.744 43.9808-61.4144-55.1936-76.1856 67.1232 20.992 27.8784-46.8736 72.3712 108.416 108.416h-243.4048c-13.8752-0.512-24.9088-4.9408-33.0752-13.3632-8.1664-8.4224-12.2624-18.0736-12.2624-28.9792v-141.184c41.1392-38.144 78.3104-72.576 111.5136-103.296z" fill="#FFFFFF" /><path d="M545.7152 484.992l-20.992-27.8784 76.1856-67.1232 61.4144 55.1936 31.744-43.9808 181.0688 181.0688v46.3616c0 11.904-4.1984 21.0688-12.6208 27.4944-8.4224 6.4512-19.8144 9.6512-34.176 9.6512h-221.056l-108.416-108.416 46.848-72.3712z" fill="#E1E8ED" /><path d="M688.3328 512.5888l-63.9488 63.9488-27.7504-27.4688 64.1024-64.0768z" fill="#81A537" /><path d="M526.4384 479.2832h14.976l4.3008 5.7088-46.8736 72.3712v-78.08z" fill="#B3D461" /><path d="M541.4144 479.2832h35.5072l-25.2416 25.2416 44.7744 44.7488 0.1792-0.2048 27.7504 27.4688h-55.8848l-44.416-44.416-25.2416 25.2416 46.8736-72.3712z" fill="#B3D461" /><path d="M541.0304 409.472l27.4688-27.4688 19.5072 19.328-9.216 8.1408z" fill="#9D7828" /><path d="M578.7904 409.472l9.216-8.1408 8.2432 8.1408z" fill="#9D7828" /><path d="M534.9888 470.7328l-2.8416 2.816-27.5968-27.5968 36.48-36.48h37.76l-54.0672 47.6416z" fill="#CD9E29" /><path d="M534.9888 470.7328l-10.2656-13.6192 54.0672-47.6416h17.4592z" fill="#CD9E29" /><path d="M600.9088 389.9904l-12.9024 11.3408-19.5072-19.328h55.8848l44.416 44.416 25.2416-25.216-31.744 43.9552z" fill="#EED557" /><path d="M694.0416 479.2576v0.0256h-78.08l25.2416-25.2416-44.7488-44.7744-0.2048 0.2048-8.2432-8.1408 12.9024-11.3408 61.3888 55.168 31.744-43.9552v50.4576z" fill="#EED557" /><path d="M1024 665.2416s-39.1424-74.3168-100.7872-18.5088c-18.8928 17.0752-49.6896 63.4368-90.5216 106.7264-6.4256 6.8096-38.5024 37.0432-38.5024 37.0432l-176.7424 21.6832s-133.0944-84.992-136.4224-85.248c44.4928 14.1056 177.536 30.0544 296.6272 18.56 32.0256-3.072 81.3568-2.4064 84.864-58.368 2.176-34.6624-31.872-56.3968-71.552-59.8784-99.456-8.704-161.3056-20.7616-232.6528-47.5136-80.5632-30.208-159.3088-34.6368-229.5552-28.0576l-148.736 148.736 148.736-148.736c-95.2576 8.9344-174.848 38.272-221.6448 52.096l0.896 18.7648 109.3376 255.5136c70.656 8.4992 170.3168 29.2608 266.9824 79.9744 39.1168 20.5312 249.8304-43.8528 342.784-63.744 23.5008-5.0432 30.3616-8.6272 48.1536-31.1296 34.2016-43.264 72.6784-98.7648 103.7312-141.2608l2.1248-2.8672-30.2592-21.1712c-0.0512-0.0256 32.9728-48.7424 73.1392-32.6144z" fill="#FFC581" /></svg>