<?xml version="1.0" encoding="utf-8"?>
<!-- Generator: Adobe Illustrator 24.3.0, SVG Export Plug-In . SVG Version: 6.00 Build 0)  -->
<svg version="1.1" id="Capa_1" xmlns="http://www.w3.org/2000/svg" xmlns:xlink="http://www.w3.org/1999/xlink" x="0px" y="0px"
	 viewBox="0 0 496 496" style="enable-background:new 0 0 496 496;" xml:space="preserve">
<style type="text/css">
	.st0{fill:#E6E9ED;}
	.st1{fill:#ED5565;}
	.st2{fill:#F5F7FA;}
	.st3{fill:#5D9CEC;}
	.st4{fill:#CCD1D9;}
	.st5{fill:#DA4453;}
	.st6{fill:#87BCF4;}
	.st7{fill:#87BEE7;}
	.st8{fill:#1072B5;}
	.st9{fill:#FFFFFF;}
</style>
<rect x="26" y="220" class="st0" width="107" height="168"/>
<polygon class="st1" points="362,174 194,76 26,174 2,188 2,156 194,44 386,156 386,188 "/>
<rect x="250" y="228" class="st2" width="80" height="24"/>
<rect x="250" y="252" class="st3" width="80" height="56"/>
<rect x="170" y="284" class="st1" width="48" height="104"/>
<circle class="st3" cx="194" cy="164" r="32"/>
<path class="st0" d="M362,174v214H218V284h-48v104H34v-40h96V220H26v-46l168-98L362,174z M330,308v-56v-24h-80v24v56H330z M194,196
	c17.7,0,32-14.3,32-32s-14.3-32-32-32s-32,14.3-32,32S176.3,196,194,196z"/>
<polygon class="st4" points="330,155.3 330,228 330,252 330,308 330,388 362,388 362,174 "/>
<polygon class="st5" points="354,169.3 362,174 386,188 386,156 354,137.3 "/>
<polygon class="st6" points="292.8,308 268.8,308 287.2,252 311.2,252 "/>
<path class="st2" d="M226,164c0-2.8-0.5-5.4-1.1-8H202v-22.9c-2.6-0.7-5.2-1.1-8-1.1s-5.4,0.5-8,1.1V156h-22.9
	c-0.7,2.6-1.1,5.2-1.1,8s0.5,5.4,1.1,8H186v22.9c2.6,0.7,5.2,1.1,8,1.1s5.4-0.5,8-1.1V172h22.9C225.5,169.4,226,166.8,226,164z"/>
<rect x="58" y="230" class="st2" width="80" height="24"/>
<rect x="58" y="254" class="st3" width="80" height="56"/>
<polygon class="st6" points="100.8,310 76.8,310 95.2,254 119.2,254 "/>
<path class="st7" d="M489,468l-20.7,20.7c-4.7,4.7-12.3,4.6-16.9-0.2l-92.5-96.2l33.6-33.5l96.4,92.3
	C493.6,455.7,493.7,463.3,489,468z"/>
<path class="st8" d="M385.8,242.3c39.7,39.6,39.7,103.9,0,143.5c-39.7,39.6-104.1,39.6-143.8,0c-39.7-39.6-39.7-103.9,0-143.5
	C281.8,202.6,346.1,202.6,385.8,242.3z"/>
<path class="st9" d="M313.9,392c-20.9,0-40.5-8.1-55.3-22.9c-14.8-14.7-22.9-34.3-22.9-55.1s8.1-40.4,22.9-55.1
	c14.8-14.7,34.4-22.9,55.3-22.9s40.5,8.1,55.3,22.9c14.8,14.7,22.9,34.3,22.9,55.1s-8.1,40.4-22.9,55.1
	C354.5,383.9,334.8,392,313.9,392z"/>
<path class="st7" d="M279.7,364.2c-2,0-4.1-0.8-5.7-2.3c-12.8-12.8-19.8-29.7-19.8-47.8c0-18.1,7-35,19.8-47.8
	c3.1-3.1,8.2-3.1,11.3,0c3.1,3.1,3.1,8.2,0,11.3c-9.8,9.7-15.1,22.7-15.1,36.5c0,13.8,5.4,26.7,15.1,36.5c3.1,3.1,3.1,8.2,0,11.3
	C283.8,363.4,281.8,364.2,279.7,364.2z"/>
</svg>
