<?xml version="1.0" standalone="no"?><!DOCTYPE svg PUBLIC "-//W3C//DTD SVG 1.1//EN" "http://www.w3.org/Graphics/SVG/1.1/DTD/svg11.dtd"><svg class="icon" height="512" viewBox="0 0 1024 1024" version="1.1" xmlns="http://www.w3.org/2000/svg"><path d="M448.667136 46.6176a399.4368 399.4368 0 0 0-284.288 117.76 399.4368 399.4368 0 0 0-117.76 284.288c0 107.392 41.8304 208.3328 117.76 284.288 3.3792 3.3792 7.0912 6.3232 10.5728 9.6L698.062336 133.6064a398.7712 398.7712 0 0 0-249.3952-86.9888z m220.0064 121.216L218.548736 691.7888 668.673536 167.8336z" fill="#F8FCFF" /><path d="M732.955136 164.3776a411.136 411.136 0 0 0-34.8672-30.7712L174.951936 742.528c74.6496 69.632 171.136 108.16 273.7152 108.1856 107.3664 0 208.3584-41.8304 284.288-117.7856a399.5136 399.5136 0 0 0 117.76-284.2624 399.5392 399.5392 0 0 0-117.76-284.288z" fill="#EFF2F4" /><path d="M796.545536 731.0592c-9.6 11.9296-19.84 23.5264-30.8992 34.5856-11.0848 11.0848-22.7072 21.2992-34.6112 30.8992 9.3696 9.9584 73.4208 74.3168 73.4208 74.3168l66.432-66.4064c0 0.0256-64.4096-63.9744-74.3424-73.3952z" fill="#259EBA" /><path d="M1015.758336 916.9408l-118.5792-118.5792a27.8784 27.8784 0 0 0-39.5264 0l-3.2512 3.2512-52.7872 52.7872-3.2512 3.2512a27.8528 27.8528 0 0 0 0 39.5264l118.5792 118.5792a27.8272 27.8272 0 0 0 39.5264 0l59.2896-59.2896a27.8272 27.8272 0 0 0 0-39.5264z" fill="#3BAFDA" /><path d="M765.927936 131.4048C681.166336 46.6688 568.500736 0 448.667136 0S216.167936 46.6688 131.406336 131.4048A445.7728 445.7728 0 0 0 0.001536 448.6656c0 119.8336 46.6688 232.4736 131.4304 317.2608 2.8416 2.8416 5.8112 5.4784 8.8064 8.0896l4.4544 3.968a446.7712 446.7712 0 0 0 303.9744 119.3472c119.8336 0 232.4992-46.6688 317.2608-131.4304a445.696 445.696 0 0 0 131.4048-317.2352 445.9776 445.9776 0 0 0-131.4048-317.2608z m-34.0736 600.448a398.0032 398.0032 0 0 1-283.1872 117.3248c-100.608 0-196.9408-37.8624-271.3088-106.5472l-5.3504-4.7872c-2.2016-1.9456-4.4544-3.8912-6.528-5.9648a397.8752 397.8752 0 0 1-117.2992-283.1872c0-106.9824 41.6512-207.5648 117.2992-283.2128s176.2304-117.2992 283.1872-117.2992 207.5392 41.6512 283.1872 117.2992a398.0032 398.0032 0 0 1 117.2992 283.2128c0 106.9568-41.6512 207.5392-117.2992 283.1616z" fill="#3BAFDA" /><path d="M160.231936 547.6608h58.2912v85.2736H160.231936zM156.647936 443.3664h58.2912v85.2992H156.647936zM212.788736 406.6048v-85.248H154.471936v85.248h14.5152z" fill="#7AC3E1" /><path d="M166.299136 635.5712v18.7392l74.8544 11.1616 65.5104-76.2624z" fill="#3BAFDA" /><path d="M450.817536 541.5936l-144.1536 47.616-65.5104 76.2624 228.864 34.1504 284.544-112.6912v-18.7392z" fill="#3BAFDA" /><path d="M166.299136 635.5712l89.1136 13.2864 63.3088-73.6512z" fill="#EFF2F4" /><path d="M754.561536 568.192L450.817536 522.8544l-132.096 52.352-63.3088 73.6512 214.6048 32.0256z" fill="#EFF2F4" /><path d="M166.299136 531.2768v18.7392l154.2656 23.0144 111.2064-129.4336z" fill="#7C38BC" /><path d="M450.817536 437.2992l-19.0464 6.2976-111.2064 129.4336 149.4528 22.3232 284.544-112.7168v-18.7648z" fill="#7C38BC" /><path d="M450.817536 418.56L166.299136 531.2768l168.5504 25.1392 118.144-137.5232z" fill="#7C38BC" /><path d="M754.561536 463.872l-301.568-44.9792-118.144 137.5232 135.168 20.1728z" fill="#7C38BC" /><path d="M198.759936 554.8544s-22.016 5.8624-27.7248 33.9712c-5.7088 28.1344 16.5376 44.6464 16.5376 44.6464l72.0896 10.4448 60.7232-70.6816-121.6256-18.3808z" fill="#F8FCFF" /><path d="M460.417536 629.9904c0-12.5184 2.2528-24.32 6.2464-34.6624l-146.2784-22.1184-60.7232 70.6816 211.5328 30.592a93.4144 93.4144 0 0 1-10.7776-44.4928z" fill="#CCCCCC" /><path d="M734.209536 522.8544c0-12.5184 2.2528-24.2944 6.2464-34.6624l-273.792 107.1616a96.512 96.512 0 0 0-6.2464 34.6624c0 16.6912 4.0192 32.0768 10.8032 44.4928l273.7664-107.136a93.6704 93.6704 0 0 1-10.7776-44.5184z" fill="#CCCCCC" /><path d="M162.689536 531.2768v4.7616c-12.032 13.6704-19.9168 33.8688-19.9168 56.8832 0 23.3984 5.12 44.0064 17.4592 57.6512 1.0752 1.1776 6.0672 3.7376 6.0672 3.7376l36.0704 5.376-8.6784-20.0448c-15.6928-2.432-27.904-20.6592-27.904-42.7776 0-21.504 11.5712-39.2192 26.6752-42.4192l127.7184 19.072 113.0496-131.584-270.5408 89.344z" fill="#7AC3E1" /><path d="M447.207936 437.2992l-14.0288 4.6336-113.024 131.584 146.2528 21.8368 284.5184-112.7168v-18.7392z" fill="#3BAFDA" /><path d="M750.926336 463.872l-298.3424-44.5184-118.1696 137.5488 131.9936 19.6864z" fill="#EFF2F4" /><path d="M447.233536 418.56L162.689536 531.2768l171.7248 25.6256 118.1696-137.5488z" fill="#EFF2F4" /><path d="M750.926336 359.6032l-218.9312-32.6912-118.144 137.5232 52.5568 7.8336zM447.233536 314.2656L162.689536 426.9568l251.1616 37.4784 118.144-137.5232z" fill="#F9C82D" /><path d="M195.150336 450.56s-22.016 5.8624-27.7248 33.9712c-5.6832 28.1088 16.5376 44.6464 16.5376 44.6464l155.008 22.4 60.3136-70.1952L195.150336 450.56z" fill="#F8FCFF" /><path d="M456.833536 525.696c0-12.5184 2.2528-24.2944 6.2464-34.6624l-63.7696-9.6256-60.3136 70.1952 128.64 18.6112a93.0048 93.0048 0 0 1-10.8032-44.5184z" fill="#CCCCCC" /><path d="M447.207936 333.0304l-284.5184 93.952v0.4864c-14.1824 13.44-23.5264 35.7632-23.5264 61.1584 0 23.424 5.1456 44.0064 17.4848 57.6512 1.0752 1.1776 6.0672 3.7376 6.0672 3.7376l36.0704 5.376-8.6784-20.0448c-15.7184-2.4576-27.9296-20.6592-27.9296-42.7776 0-22.0928 12.1856-40.32 27.8784-42.7776l209.5616 31.2576 121.6256-141.568-74.0352-6.4512z" fill="#7AC3E1" /><path d="M521.191936 339.4816l-121.6256 141.568 66.8416 9.984 284.5184-112.7168v-18.7136z" fill="#3BAFDA" /><path d="M730.599936 418.56c0-12.5184 2.2528-24.2944 6.2464-34.6624l-273.7664 107.136a96.512 96.512 0 0 0-6.2464 34.6624c0 16.6912 4.0192 32.0768 10.7776 44.4928l273.792-107.136a93.184 93.184 0 0 1-10.8032-44.4928z" fill="#CCCCCC" /><path d="M160.539136 409.2672v8.448l8.6016-11.2896z" fill="#E8B321" /><path d="M445.057536 315.2896l-275.9168 91.136-8.6016 11.2896v10.2912l252.2624 37.6576 122.4192-142.4896z" fill="#7AC3E1" /><path d="M535.220736 323.1744l-122.4192 142.4896 51.456 7.68 284.5184-112.7168v-18.7648z" fill="#3BAFDA" /><path d="M160.539136 409.2672l5.7856 0.8704 3.4304-4.5312z" fill="#EFF2F4" /><path d="M445.057536 296.5504l-275.3024 109.056-3.4304 4.5056 260.7616 38.9376 118.1696-137.5488z" fill="#EFF2F4" /><path d="M748.775936 341.8624l-203.52-30.3616-118.1696 137.5488 37.1712 5.5296z" fill="#EFF2F4" /><path d="M454.657536 403.6864c0-12.5184 2.2528-24.32 6.2464-34.6624l-236.0832-35.6864-31.8464-4.8128s-22.016 5.8624-27.7248 33.9712a44.16 44.16 0 0 0 9.1392 36.992c3.8656 4.9408 7.424 7.6544 7.424 7.6544l250.1376 36.1728 23.4496-27.2896a102.0928 102.0928 0 0 1-0.7424-12.3392z" fill="#F8FCFF" /><path d="M455.425536 416.0512l-23.4496 27.2896 33.4848 4.8384a89.9584 89.9584 0 0 1-10.0352-32.128z" fill="#CCCCCC" /><path d="M445.057536 192.256l-161.4592 63.9744-123.0848 48.7424v0.4864c-14.1824 13.44-23.5008 35.7632-23.5008 61.1328 0 23.3984 5.12 44.0064 17.4592 57.6768 0.128 0.128 0.4608 0.3328 0.6912 0.512l16.4864-21.6576a49.152 49.152 0 0 1-11.648-32.5376c0-22.0928 12.1856-40.32 27.8784-42.7776l36.992 5.504 239.3856 35.712 47.872-18.9696 112.5376-131.0208-179.6096-26.7776z" fill="#7AC3E1" /><path d="M748.775936 237.568l-124.1088-18.5344-112.5376 131.0208 236.6464-93.7472z" fill="#3BAFDA" /><path d="M171.649536 403.1232l-16.4864 21.6576c1.6384 1.28 5.376 3.2256 5.376 3.2256l36.0704 5.376-8.6784-20.0448c-6.272-0.9728-11.6736-4.9664-16.2816-10.2144z" fill="#7AC3E1" /><path d="M460.903936 369.024a96.6144 96.6144 0 0 0-6.2464 34.6624c0 4.224 0.256 8.3456 0.768 12.3648l58.0864-67.6096-52.608 20.5824z" fill="#F8FCFF" /><path d="M739.252736 341.0432a93.184 93.184 0 0 1-10.8032-44.4928c0-12.5184 2.2528-24.2944 6.2464-34.6624l-221.2096 86.5536-58.0864 67.6096c1.4592 11.904 4.9664 22.8608 10.0352 32.128l273.8176-107.136z" fill="#CCCCCC" /><path d="M435.252736 248.8832l26.4448 0.9472a9.472 9.472 0 0 1 2.432 0.4608l4.5056 4.7104c0.3328 0.3584 1.0752 0.64 2.2272 0.8448a49.1008 49.1008 0 0 0 15.9488-0.8192l19.4816-4.5312c0.64-0.1536 2.8416-0.4096 3.7376-0.4352l26.5728-0.64a50.432 50.432 0 0 0 11.4176-1.3312c2.7904-0.768 3.4304-1.5872 1.7152-2.2784l-10.496-4.1984c-0.3584-0.1536-0.128-0.6144 0.4096-0.8192l16.8448-6.1696c3.0464-1.1008 3.5328-2.1248 1.3056-2.7904-2.2528-0.6656-6.6816-0.768-12.1088-0.2816l-31.2832 2.7648c-1.024 0.1024-3.4304 0.0512-4.096-0.0512l-21.5552-3.6864a48.5632 48.5632 0 0 0-13.5424-0.128c-4.6848 0.5632-7.7568 1.6128-8.4736 2.8416l-3.8912 6.6816a6.656 6.656 0 0 1-2.432 0.8192l-26.6496 4.1216c-3.5328 0.5376-5.7856 1.2288-6.3744 1.92-0.8192 1.024 2.2528 1.8688 7.8592 2.048z" fill="#3BAFDA" /></svg>