<?xml version="1.0" standalone="no"?><!DOCTYPE svg PUBLIC "-//W3C//DTD SVG 1.1//EN" "http://www.w3.org/Graphics/SVG/1.1/DTD/svg11.dtd"><svg class="icon" height="512" viewBox="0 0 1024 1024" version="1.1" xmlns="http://www.w3.org/2000/svg"><path d="M85.333333 640v284.444444h810.666667V369.777778L630.528 573.639111 369.180444 384z" fill="#BAD4FF" /><path d="M99.555556 640v270.222222" fill="#FFFFFF" /><path d="M106.666667 931.555556A21.333333 21.333333 0 0 1 85.333333 910.222222V640a21.333333 21.333333 0 1 1 42.666667 0v270.222222a21.333333 21.333333 0 0 1-21.333333 21.333334z" fill="#4E8CEE" /><path d="M355.555556 440.888889v469.333333" fill="#FFFFFF" /><path d="M362.666667 931.555556A21.333333 21.333333 0 0 1 341.333333 910.222222V440.888889a21.333333 21.333333 0 1 1 42.666667 0v469.333333a21.333333 21.333333 0 0 1-21.333333 21.333334z" fill="#4E8CEE" /><path d="M625.777778 910.222222V583.111111" fill="#FFFFFF" /><path d="M632.888889 931.555556A21.333333 21.333333 0 0 1 611.555556 910.222222V583.111111a21.333333 21.333333 0 0 1 42.666666 0v327.111111a21.333333 21.333333 0 0 1-21.333333 21.333334z" fill="#4E8CEE" /><path d="M867.555556 398.222222v512" fill="#FFFFFF" /><path d="M874.666667 931.555556A21.333333 21.333333 0 0 1 853.333333 910.222222V398.222222a21.333333 21.333333 0 1 1 42.666667 0v512a21.333333 21.333333 0 0 1-21.333333 21.333334z" fill="#4E8CEE" /><path d="M998.229333 145.009778a21.290667 21.290667 0 0 0-19.797333-21.674667L802.56 111.203556a21.191111 21.191111 0 0 0-22.755556 19.811555 21.319111 21.319111 0 0 0 19.811556 22.755556l133.461333 9.201777L632.888889 398.222222 392.618667 205.368889c-0.896-2.730667 2.062222 2.275556 0 0a21.319111 21.319111 0 0 0-30.136889-1.521778L44.856889 490.894222a21.333333 21.333333 0 0 0 28.600889 31.658667L375.708444 245.333333l246.684445 199.281778a21.333333 21.333333 0 0 0 29.980444-3.569778c2.403556-3.072-0.526222 3.598222 0 0l304.142223-242.247111-7.637334 125.368889a21.304889 21.304889 0 0 0 21.304889 22.627556 21.333333 21.333333 0 0 0 21.276445-20.039111l10.296888-168.817778a21.319111 21.319111 0 0 0-3.527111-12.928z" fill="#4E8CEE" /></svg>