<svg height="472pt" viewBox="0 -3 472 471" width="472pt" xmlns="http://www.w3.org/2000/svg"><path d="m16 48.5h288v352h-288zm0 0" fill="#bddbff"/><path d="m16 400.5v32c0 17.671875 14.328125 32 32 32h232c17.679688 0 24-14.320312 24-32v-32zm0 0" fill="#006df0"/><path d="m400 256.5c0-13.253906-10.746094-24-24-24v48c13.253906 0 24-10.746094 24-24zm0 0" fill="#ed1c24"/><path d="m272 .5h-224c-17.671875 0-32 14.328125-32 32v16h288v-16c0-17.671875-14.328125-32-32-32zm0 0" fill="#006df0"/><path d="m128 48.5v64c0 17.671875 14.328125 32 32 32s32-14.328125 32-32v-64zm0 0" fill="#ed1c24"/><path d="m192 48.5v64c0 17.671875 14.328125 32 32 32s32-14.328125 32-32v-64zm0 0" fill="#ffcd00"/><path d="m256 48.5v64c0 17.671875 14.328125 32 32 32s32-14.328125 32-32v-48c0-8.835938-7.164062-16-16-16zm0 0" fill="#ed1c24"/><path d="m32 144.5c17.671875 0 32-14.328125 32-32v-64h-48c-8.835938 0-16 7.164062-16 16v48c0 17.671875 14.328125 32 32 32zm0 0" fill="#ed1c24"/><path d="m64 48.5v64c0 17.671875 14.328125 32 32 32s32-14.328125 32-32v-64zm0 0" fill="#ffcd00"/><path d="m152 208.5c-26.507812 0-48 21.492188-48 48s21.492188 48 48 48h64v-96zm0 0" fill="#006df0"/><path d="m168 304.5h-16c-26.507812 0-48-21.492188-48-48s21.492188-48 48-48h16c-26.507812 0-48 21.492188-48 48s21.492188 48 48 48zm0 0" fill="#005ece"/><path d="m364.894531 149.171875-60.894531 24.265625-88 35.0625v96l88 35.0625 60.894531 24.265625c2.472657 1.039063 5.300781.773437 7.53125-.710937 2.234375-1.480469 3.574219-3.984376 3.574219-6.664063v-199.90625c0-2.679687-1.339844-5.183594-3.574219-6.664063-2.230469-1.484374-5.058593-1.75-7.53125-.710937zm0 0" fill="#ff9811"/><path d="m184 360.5c0 4.417969 3.582031 8 8 8h16c4.417969 0 8-3.582031 8-8l-16-56h-32zm0 0" fill="#00479b"/><path d="m16 232.5v168h184c-101.703125 0-184-75.144531-184-168zm0 0" fill="#9bc9ff"/><path d="m216 208.5v96l16 6.375v-108.75zm0 0" fill="#ee8700"/><path d="m136 16.5h16v16h-16zm0 0" fill="#f1f2f2"/><path d="m168 16.5h16v16h-16zm0 0" fill="#f1f2f2"/><path d="m136 424.5h48v16h-48zm0 0" fill="#f1f2f2"/><g fill="#ed1c24"><path d="m464 248.5h-32c-4.417969 0-8 3.582031-8 8s3.582031 8 8 8h32c4.417969 0 8-3.582031 8-8s-3.582031-8-8-8zm0 0"/><path d="m421.257812 290.445312c-3.140624-3.03125-8.128906-2.988281-11.214843.097657-3.085938 3.085937-3.128907 8.074219-.097657 11.214843l22.621094 22.621094c3.140625 3.03125 8.128906 2.988282 11.214844-.097656s3.128906-8.074219.097656-11.214844zm0 0"/><path d="m415.601562 224.898438c2.121094 0 4.15625-.84375 5.65625-2.34375l22.621094-22.621094c3.03125-3.140625 2.988282-8.128906-.097656-11.214844s-8.074219-3.128906-11.214844-.097656l-22.621094 22.621094c-2.289062 2.289062-2.972656 5.730468-1.734374 8.71875 1.238281 2.988281 4.152343 4.9375 7.390624 4.9375zm0 0"/></g><path d="m160 248.5h-32c-4.417969 0-8 3.582031-8 8s3.582031 8 8 8h32c4.417969 0 8-3.582031 8-8s-3.582031-8-8-8zm0 0" fill="#004fac"/><path d="m160 224.5h-24c-4.417969 0-8 3.582031-8 8s3.582031 8 8 8h24c4.417969 0 8-3.582031 8-8s-3.582031-8-8-8zm0 0" fill="#004fac"/><path d="m160 272.5h-24c-4.417969 0-8 3.582031-8 8s3.582031 8 8 8h24c4.417969 0 8-3.582031 8-8s-3.582031-8-8-8zm0 0" fill="#004fac"/></svg>