<?xml version="1.0" encoding="iso-8859-1"?>
<!-- Generator: Adobe Illustrator 19.0.0, SVG Export Plug-In . SVG Version: 6.00 Build 0)  -->
<svg version="1.1" id="Capa_1" xmlns="http://www.w3.org/2000/svg" xmlns:xlink="http://www.w3.org/1999/xlink" x="0px" y="0px"
	 viewBox="0 0 496.16 496.16" style="enable-background:new 0 0 496.16 496.16;" xml:space="preserve">
<path style="fill:#E6E9ED;" d="M496.16,40.08v448h-496v-448H496H496.16z M464.08,456.08v-32h-128v32H464.08z M464.08,392.08v-32
	v-288h-432v288v32H464.08z"/>
<rect x="336.08" y="416.08" style="fill:#5D9CEC;" width="128" height="48"/>
<path style="fill:#CCD1D9;" d="M496,40.08H0.16H0v-16c0-8.88,7.192-16,16-16h464c8.872,0,16,7.12,16,16V40.08z"/>
<path style="fill:#AAB2BD;" d="M480,8.08h-32c8.872,0,16,7.12,16,16v16h32v-16C496,15.2,488.88,8.08,480,8.08z"/>
<polygon style="fill:#CCD1D9;" points="496,40.08 464.16,40.08 464.16,488.08 496.16,488.08 496.16,40.08 "/>
<polygon style="fill:#F5F7FA;" points="464.08,360.08 464.08,392.08 32.08,392.08 32.08,360.08 64.08,360.08 136.08,360.08 
	168.08,360.08 232.08,360.08 264.08,360.08 328.08,360.08 360.08,360.08 432.08,360.08 "/>
<g>
	<path style="fill:#A0D468;" d="M136.08,360.08h-72v-20c0-6.64,5.36-12,12-12s12,5.36,12,12v-8c0-6.64,5.36-12,12-12s12,5.36,12,12
		v8c0-6.64,5.36-12,12-12s12,5.36,12,12V360.08z"/>
	<path style="fill:#A0D468;" d="M408.08,340.08c0-6.64,5.36-12,12-12s12,5.36,12,12v20h-72v-20c0-6.64,5.36-12,12-12s12,5.36,12,12
		v-8c0-6.64,5.36-12,12-12s12,5.36,12,12V340.08z"/>
</g>
<rect x="232.08" y="304.08" style="fill:#48CFAD;" width="32" height="56"/>
<polygon style="fill:#E6E9ED;" points="328.08,265.28 328.08,360.08 264.08,360.08 264.08,304.08 232.08,304.08 232.08,360.08 
	168.08,360.08 168.08,265.28 248.08,216.08 "/>
<polygon style="fill:#CCD1D9;" points="296.08,245.6 296.08,360.08 328.08,360.08 328.08,265.28 "/>
<polygon style="fill:#48CFAD;" points="352.08,248.08 352.08,280.08 328.08,265.28 248.08,216.08 168.08,265.28 144.08,280.08 
	144.08,248.08 248.08,184.08 "/>
<path style="fill:#F5F7FA;" d="M384.08,144.08c0-13.28,10.72-24,24-24s24,10.72,24,24s-10.72,24-24,24h-60c-6.64,0-12-5.36-12-12
	s5.36-12,12-12H384.08z"/>
<path style="fill:#FFCE54;" d="M112.08,136.08c8.8,0,16,7.2,16,16s-7.2,16-16,16s-16-7.2-16-16S103.28,136.08,112.08,136.08z"/>
<path style="fill:#5D9CEC;" d="M112.08,136.08c-8.8,0-16,7.2-16,16s7.2,16,16,16s16-7.2,16-16S120.88,136.08,112.08,136.08z
	 M464.08,72.08v288h-32v-20c0-6.64-5.36-12-12-12s-12,5.36-12,12v-8c0-6.64-5.36-12-12-12s-12,5.36-12,12v8c0-6.64-5.36-12-12-12
	s-12,5.36-12,12v20h-32v-94.8l24,14.8v-32l-104-64l-104,64v32l24-14.8v94.8h-32v-20c0-6.64-5.36-12-12-12s-12,5.36-12,12v-8
	c0-6.64-5.36-12-12-12s-12,5.36-12,12v8c0-6.64-5.36-12-12-12s-12,5.36-12,12v20h-32v-288H464.08z M432.08,144.08
	c0-13.28-10.72-24-24-24s-24,10.72-24,24h-36c-6.64,0-12,5.36-12,12s5.36,12,12,12h60C421.36,168.08,432.08,157.36,432.08,144.08z"
	/>
<polygon style="fill:#37BC9B;" points="320.08,260.36 328.08,265.28 352.08,280.08 352.08,248.08 320.08,228.384 "/>
<g>
	<path style="fill:#CCD1D9;" d="M200.32,384.08c-4.424,0-8.04-3.576-8.04-8s3.536-8,7.952-8h0.088c4.416,0,8,3.576,8,8
		S204.736,384.08,200.32,384.08z"/>
	<path style="fill:#CCD1D9;" d="M232.32,384.08c-4.424,0-8.04-3.576-8.04-8s3.536-8,7.952-8h0.088c4.416,0,8,3.576,8,8
		S236.736,384.08,232.32,384.08z"/>
	<path style="fill:#CCD1D9;" d="M264.32,384.08c-4.424,0-8.04-3.576-8.04-8s3.536-8,7.952-8h0.088c4.416,0,8,3.576,8,8
		S268.736,384.08,264.32,384.08z"/>
	<path style="fill:#CCD1D9;" d="M296.32,384.08c-4.424,0-8.04-3.576-8.04-8s3.536-8,7.952-8h0.088c4.416,0,8,3.576,8,8
		S300.736,384.08,296.32,384.08z"/>
</g>
<path style="fill:#ED5565;" d="M24.248,32.08c-4.416,0-8.032-3.576-8.032-8s3.536-8,7.952-8h0.088c4.416,0,8,3.576,8,8
	S28.664,32.08,24.248,32.08z"/>
<path style="fill:#FFCE54;" d="M48.248,32.08c-4.416,0-8.032-3.576-8.032-8s3.536-8,7.952-8h0.088c4.416,0,8,3.576,8,8
	S52.664,32.08,48.248,32.08z"/>
<path style="fill:#8CC152;" d="M72.248,32.08c-4.416,0-8.032-3.576-8.032-8s3.536-8,7.952-8h0.088c4.416,0,8,3.576,8,8
	S76.664,32.08,72.248,32.08z"/>
<g>
	<path style="fill:#656D78;" d="M280.08,432.08h-248c-4.424,0-8-3.576-8-8s3.576-8,8-8h248c4.424,0,8,3.576,8,8
		S284.504,432.08,280.08,432.08z"/>
	<path style="fill:#656D78;" d="M160.08,464.08h-128c-4.424,0-8-3.576-8-8s3.576-8,8-8h128c4.424,0,8,3.576,8,8
		S164.504,464.08,160.08,464.08z"/>
</g>
<g>
</g>
<g>
</g>
<g>
</g>
<g>
</g>
<g>
</g>
<g>
</g>
<g>
</g>
<g>
</g>
<g>
</g>
<g>
</g>
<g>
</g>
<g>
</g>
<g>
</g>
<g>
</g>
<g>
</g>
</svg>
