<?xml version="1.0" standalone="no"?><!DOCTYPE svg PUBLIC "-//W3C//DTD SVG 1.1//EN" "http://www.w3.org/Graphics/SVG/1.1/DTD/svg11.dtd"><svg class="icon" height="512" viewBox="0 0 1024 1024" version="1.1" xmlns="http://www.w3.org/2000/svg"><path d="M928 256h-192V64h-640V1024h433.7152L928 625.7152z" fill="#62D1A9" /><path d="M529.7152 1024H928V625.7152z" fill="#59BA98" /><path d="M736 64V256h192z" fill="#C7FFEF" /><path d="M928 448V256h-192z" fill="#59BA98" /><path d="M256 314.6752h512v64H256zM256 512h512v64H256zM256 709.2992h512v64H256z" fill="#FFFEFE" /><path d="M270.0032 64v384l96-96 96 96v-384z" fill="#B63434" /><path d="M366.0032 128m-128 0a128 128 0 1 0 256 0 128 128 0 1 0-256 0Z" fill="#D3711A" /><path d="M366.0032 128m-64 0a64 64 0 1 0 128 0 64 64 0 1 0-128 0Z" fill="#FCD036" /><path d="M557.1328 880.768l267.8016-267.776 57.9072 57.8816-267.776 267.8016z" fill="#375ACE" /><path d="M615.1936 938.8288l-0.1536-0.1536 267.776-267.8016 0.1792 0.1536z" fill="#375ACE" /><path d="M712.3712 500.4032l55.68 55.7056L500.224 823.8592l-55.68-55.7056z" fill="#4674E1" /><path d="M824.9344 499.2l56.8832 56.9088-324.736 324.608-56.8576-56.8576z" fill="#5783EE" /><path d="M824.96 612.9664l56.8832-56.8832 57.9072 57.9072-56.8832 56.8832zM883.0208 671.0528l-0.1536-0.1536 56.8832-56.8832 0.1536 0.1792zM769.28 443.4944l55.68 55.68-56.8832 56.8832-55.68-55.68z" fill="#CBD5D1" /><path d="M824.9344 499.2l56.8832 56.8832-56.8832 56.8832-56.8832-56.8832z" fill="#D5D7D2" /><path d="M939.7248 613.9904l0.1536 0.1536 14.2336-14.2336c0.2816-0.2816 0.384-0.6656 0.64-0.9728l-15.0272 15.0528z" fill="#FF69A7" /><path d="M954.112 571.4944l-142.1824-142.1824a20.096 20.096 0 0 0-28.4416 0l-14.208 14.208 170.4704 170.4704 15.0272-15.0272a19.968 19.968 0 0 0-0.6656-27.4688z" fill="#FF69A7" /><path d="M444.4416 768.3328l-27.3408 143.3344 54.656 54.656 142.9248-27.264 0.2304-0.2304zM614.912 938.8288l-0.2304 0.2304 0.384-0.0768z" fill="#F4D031" /><path d="M417.1008 911.6672l-12.8768 67.5328 67.5328-12.8768z" fill="#607BF9" /></svg>